<?xml version="1.0" standalone="no"?><!DOCTYPE svg PUBLIC "-//W3C//DTD SVG 1.1//EN" "http://www.w3.org/Graphics/SVG/1.1/DTD/svg11.dtd"><svg class="icon" width="200px" height="200.00px" viewBox="0 0 1024 1024" version="1.1" xmlns="http://www.w3.org/2000/svg"><path fill="#0dc441" d="M326.9182 798.9099h371.4249183222958c61.5191 0 111.408-49.8708 111.408-111.3764v-37.12621633554084h-74.28181898454746v37.12621633554084c0 20.5071-16.6055 37.1262-37.1262 37.1262H326.9182163355408c-20.5207 0-37.1217-16.6191-37.1217-37.1262V334.848c0-20.4981 16.601-37.1262 37.1217-37.1262h371.4249183222958c20.5207 0 37.1262 16.6259 37.1262 37.1262v37.12169536423841h74.28181898454746v-37.12169536423841c0-61.501-49.8889-111.3741-111.408-111.3741H326.9182163355408c-61.5304 0-111.4555 49.8708-111.4555 111.3741v352.68323178807947C215.465 749.0413 265.3901 798.9099 326.9182 798.9099zM667.639 606.807c8.7097 8.5243 22.7586 8.5243 31.466 0l25.2406-24.9377h1.8762030905077263v-1.8445562913907283l52.7552-52.2127c1.3066-0.8002 2.7194-1.3721 3.8722-2.4662 2.4752-2.3577 4.035-5.1833 5.0861-8.1513 4.4577-8.2327 3.4382-18.5473-3.6303-25.487-3.1556-3.081-7.064-4.6453-11.0854-5.493l-46.9932-45.047v-0.653280353200883h-0.6849271523178808l-26.7596-25.6678c-8.6215-8.2643-22.5913-8.2643-31.1744 0-7.324 6.9939-8.0473 17.5504-2.9364 25.6678h-3.411072847682119v42.83394260485652h-148.50486534216336v55.68706401766005h148.50486534216336v42.83394260485652h2.3870728476821195C659.5577 590.0274 660.706 600.055 667.639 606.807z" /></svg>