<?xml version="1.0" standalone="no"?><!DOCTYPE svg PUBLIC "-//W3C//DTD SVG 1.1//EN" "http://www.w3.org/Graphics/SVG/1.1/DTD/svg11.dtd"><svg class="icon" width="200px" height="200.00px" viewBox="0 0 1024 1024" version="1.1" xmlns="http://www.w3.org/2000/svg"><path fill="#0dc441" d="M652.639111 522.090822c48.095391-42.647309 78.850859-107.351983 78.850859-179.918719 0-128.572284-96.559173-232.67834-215.598336-232.67834-119.143541 0-215.70169 104.158245-215.70169 232.67834 0 64.496943 24.363897 122.968659 63.708997 165.04087C368.771925 511.87311 505.938957 638.667911 652.639111 522.090822L652.639111 522.090822zM797.244556 683.045631 680.040181 576.265676c-44.010353 36.048007-168.653141 112.068402-341.028047-2.726088-51.869345 39.925315-190.499705 154.563238-175.097924 231.894488 0 0 2.726088 80.633459 149.322887 84.562954 0 0 436.903651 32.274054 509.574764-42.911322C822.707484 847.034543 902.082276 795.896862 797.244556 683.045631L797.244556 683.045631zM797.244556 683.045631" /></svg>